#!OML:ASF H:\Martial Arts Walks\Project 1\Capture day 1\Session 1\male.ASF
:FULLY-SPECIFIED
:DEGREES
864
root -2.83306 13.4969 21.7204 -2.76848 21.0742 0.695637
lowerback 17.557 1.54779 -4.34932
upperback 1.49876 1.34338 1.44098
thorax -8.37502 0.840285 3.70492
lowerneck -0.138572 -7.31626 -7.42002
upperneck 5.17219 -10.0335 7.77585
head 2.57445 -4.99455 3.59866
rclavicle 9.79014e-015 -1.61016e-014
rhumerus -40.5807 3.07166 -66.8189
rradius 55.3837
rwrist -3.74373
rhand -15.0139 -48.207
rfingers 7.12502
rthumb 11.1513 -77.8906
lclavicle 9.79014e-015 -1.61016e-014
lhumerus -29.488 -24.8703 86.0132
lradius 96.8393
lwrist 26.7727
lhand -20.5814 15.3497
lfingers 7.12502
lthumb 5.77849 45.2509
rfemur -55.0241 -9.22108 7.37195
rtibia 57.0709
rfoot 3.18127 11.1292
rtoes -10.9435
lfemur 15.6263 -0.724023 -5.73154
ltibia 53.6213
lfoot -10.9588 32.8653
ltoes -0.581089
865
root -2.87517 13.5075 21.8769 -2.75965 20.4977 0.76052
lowerback 17.6899 1.61852 -4.67889
upperback 1.56969 1.37236 1.50018
thorax -8.3834 0.866105 3.9501
lowerneck 0.0116294 -7.29425 -7.57
upperneck 5.12009 -10.0195 7.98362
head 2.55257 -4.99021 3.70623
rclavicle 6.95746e-016 1.59028e-015
rhumerus -39.346 3.16003 -66.9288
rradius 54.9084
rwrist -3.36015
rhand -15.3902 -48.261
rfingers 7.12502
rthumb 10.7884 -77.9639
lclavicle 6.95746e-016 1.59028e-015
lhumerus -29.1861 -24.6306 86.2811
lradius 96.5982
lwrist 27.8391
lhand -20.4487 15.6735
lfingers 7.12502
lthumb 5.90662 45.5711
rfemur -55.265 -9.00619 7.87165
rtibia 58.0401
rfoot 2.19509 11.3453
rtoes -10.8628
lfemur 15.4198 -0.662162 -5.89175
ltibia 53.9641
lfoot -11.7937 32.7821
ltoes -0.42236
866
root -2.91541 13.5278 22.0272 -2.44982 20.2838 1.17681
lowerback 17.698 1.62174 -5.27752
upperback 1.54832 1.25551 1.47519
thorax -8.41162 0.832131 4.29512
lowerneck 0.232169 -7.28769 -7.69966
upperneck 5.13825 -10.0268 8.06261
head 2.53301 -4.99961 3.76618
rclavicle -4.26393e-014 1.27222e-014
rhumerus -38.2188 3.23418 -67.0229
rradius 54.5555
rwrist -2.9774
rhand -15.7025 -48.4629
rfingers 7.12502
rthumb 10.4871 -78.1813
lclavicle -4.26393e-014 1.27222e-014
lhumerus -28.9112 -24.5128 86.6361
lradius 96.3967
lwrist 29.1581
lhand -20.6288 16.081
lfingers 7.12502
lthumb 5.73273 45.9834
rfemur -55.5727 -9.16138 7.92438
rtibia 58.9105
rfoot 1.46992 11.4734
rtoes -9.76735
lfemur 14.8158 -0.861959 -6.50416
ltibia 54.1859
lfoot -12.7505 32.5532
ltoes -1.6464
867
root -2.95186 13.5614 22.1676 -1.92115 20.0313 1.00576
lowerback 17.2484 1.52441 -5.2966
upperback 1.45432 1.15404 1.58174
thorax -8.25666 0.783634 4.44931
lowerneck 0.228845 -7.288 -7.72878
upperneck 5.30466 -10.0299 7.9782
head 2.58624 -5.00238 3.74011
rclavicle -3.5334e-014 2.38542e-015
rhumerus -37.1229 3.28569 -67.1986
rradius 54.366
rwrist -2.42709
rhand -15.9187 -48.5292
rfingers 7.12502
rthumb 10.2786 -78.258
lclavicle -3.5334e-014 2.38542e-015
lhumerus -28.5491 -24.4412 86.9007
lradius 96.2448
lwrist 30.505
lhand -20.806 17.7007
lfingers 7.12502
lthumb 5.56167 47.6077
rfemur -56.1681 -9.22053 8.61931
rtibia 59.545
rfoot 0.811825 11.4566
rtoes -9.08366
lfemur 13.6864 -0.849582 -6.41133
ltibia 54.4409
lfoot -14.1325 32.1522
ltoes -3.22465
868
root -2.98017 13.6048 22.2974 -1.24881 20.0436 1.01708
lowerback 16.8171 1.34647 -5.32474
upperback 1.29362 0.933542 1.59255
thorax -8.16743 0.679289 4.53149
lowerneck 0.275741 -7.25746 -7.76858
upperneck 5.43455 -10.0001 8.02252
head 2.62475 -4.98795 3.76514
rclavicle 4.27387e-014 -2.54444e-014
rhumerus -36.1505 3.41621 -67.433
rradius 54.2598
rwrist -1.82479
rhand -16.3302 -48.2297
rfingers 7.12502
rthumb 9.88163 -77.9778
lclavicle 4.27387e-014 -2.54444e-014
lhumerus -28.0256 -24.5758 87.1426
lradius 95.8338
lwrist 31.6809
lhand -21.2759 18.4741
lfingers 7.12502
lthumb 5.108 48.3925
rfemur -56.7026 -9.63036 9.07952
rtibia 60.0498
rfoot 0.190884 11.6315
rtoes -8.2184
lfemur 12.353 -0.985102 -6.62433
ltibia 54.7006
lfoot -15.0663 32.0306
ltoes -3.89517
869
root -3.00506 13.6539 22.4211 -0.599638 20.0884 0.836189
lowerback 16.3758 1.15882 -5.13117
upperback 1.10026 0.744202 1.64227
thorax -8.10812 0.584121 4.51944
lowerneck 0.047572 -7.05799 -8.13092
upperneck 6.00648 -9.78158 8.62989
head 2.59916 -4.84746 3.62501
rclavicle 5.84427e-014 -1.70955e-014
rhumerus -35.4385 3.50327 -67.6694
rradius 54.5254
rwrist -1.32677
rhand -16.6639 -48.1079
rfingers 7.12502
rthumb 9.5596 -77.8711
lclavicle 5.84427e-014 -1.70955e-014
lhumerus -27.7261 -24.7249 87.4719
lradius 95.6136
lwrist 32.5126
lhand -21.8071 19.7091
lfingers 7.12502
lthumb 4.59507 49.6392
rfemur -57.1885 -10.0481 9.74026
rtibia 60.3357
rfoot -0.274906 11.7792
rtoes -7.38527
lfemur 10.8592 -1.02877 -6.60741
ltibia 55.1031
lfoot -15.8653 31.8902
ltoes -4.61362
